# xmcd CD database file
#
# Track frame offsets:
#	150
#	17495
#	39915
#	50620
#	67137
#	91242
#	103779
#	126072
#	134440
#	155577
#	177670
#	195752
#	237145
#	255715
#	271427
#	304395
#
# Disc length: 4772 seconds
#
# Revision: 1
# Processed by: cddbd v1.5.1PL2 Copyright (c) Steve Scherf et al.
# Submitted via: CDex 1.51
#
DISCID=de12a210
DTITLE=Stevie Ray Vaughan And Double Trouble - The Essential Stevie Ray Vaughan And Double Trouble (Disc-1)
DYEAR=2002
DGENRE=Blues
TTITLE0=Shake For Me (Live)
TTITLE1=Rude Mood - Hide Away (Live)
TTITLE2=Love Struck Baby
TTITLE3=Pride And Joy
TTITLE4=Texas Flood
TTITLE5=Mary Had A Little Lamb
TTITLE6=Lenny
TTITLE7=Scuttle Buttin'
TTITLE8=Couldn't Stand The Weather
TTITLE9=The Things (That) I Used To Do
TTITLE10=Cold Shot
TTITLE11=Tin Pan Alley (aka The Roughest Place In Town)
TTITLE12=Give Me Back My Wig
TTITLE13=Empty Arms
TTITLE14=The Sky Is Crying (Live)
TTITLE15=Voodoo Child (Slight Return) (Live)
EXTD=YEAR: 2002
EXTT0=
EXTT1=
EXTT2=
EXTT3=
EXTT4=
EXTT5=
EXTT6=
EXTT7=
EXTT8=
EXTT9=
EXTT10=
EXTT11=
EXTT12=
EXTT13=
EXTT14=
EXTT15=
PLAYORDER=
